<svg width="600" height="657" viewBox="0 0 600 657" fill="none" xmlns="http://www.w3.org/2000/svg">
<g opacity="0.25">
<g opacity="0.2443">
<path opacity="0.2443" d="M169.402 272.883L226.264 228.234L172.16 213.657L169.402 272.883ZM223.638 228.759L170.584 270.387L173.211 215.102L223.638 228.759Z" fill="#0E243A"/>
</g>
<g opacity="0.5038">
<path opacity="0.5038" d="M89.166 130.138L79.4484 38.608L78.6604 39.396L4.59609 106.763L89.166 130.138ZM78.5291 40.9718L87.8528 128.562L6.8285 106.106L78.5291 40.9718Z" fill="#0E243A"/>
</g>
<g opacity="0.8777">
<path opacity="0.8777" d="M5.12148 107.551L79.9738 39.6586L0.13134 0.262695L0.13134 48.5884L5.12148 107.551ZM77.8726 39.9213L6.04073 105.187L1.18188 48.4571L1.18188 2.10117L77.8726 39.9213Z" fill="#0E243A"/>
</g>
<g opacity="0.5761">
<path opacity="0.5761" d="M435.194 234.274L436.244 233.749L417.466 196.192L407.617 192.909L435.194 234.274ZM416.678 197.111L431.123 226.001L410.374 195.01L416.678 197.111Z" fill="#0E243A"/>
</g>
<g opacity="0.1811">
<path opacity="0.1811" d="M468.155 183.585L535.522 176.1L499.146 131.188L468.155 183.585ZM533.29 175.312L470.387 182.272L499.278 133.29L533.29 175.312Z" fill="#0E243A"/>
</g>
<g opacity="0.6975">
<path opacity="0.6975" d="M197.505 546.29L198.161 545.765L241.103 505.581L184.11 512.016L197.505 546.29ZM237.689 507.026L197.899 544.32L185.555 512.935L237.689 507.026Z" fill="#0E243A"/>
</g>
<g opacity="0.054651">
<path opacity="0.054651" d="M172.292 215.233L194.485 204.465L194.222 203.94L149.705 111.359L172.292 215.233ZM192.909 203.94L173.079 213.526L152.988 120.814L192.909 203.94Z" fill="#0E243A"/>
</g>
<g opacity="0.341">
<path opacity="0.341" d="M326.461 123.441L284.833 47.1438L278.135 98.4898L278.529 98.6212L326.461 123.441ZM285.489 50.8208L323.703 120.683L279.317 97.8332L285.489 50.8208Z" fill="#0E243A"/>
</g>
<g opacity="0.4395">
<path opacity="0.4395" d="M284.701 49.7702L343.27 22.8497L272.226 10.5056L284.701 49.7702ZM339.462 23.375L285.489 48.1944L273.933 12.0815L339.462 23.375Z" fill="#0E243A"/>
</g>
<g opacity="0.8687">
<path opacity="0.8687" d="M498.752 133.027L552.725 115.561L552.331 114.905L481.812 16.1523L498.752 133.027ZM550.886 115.036L499.672 131.582L483.651 20.7485L550.886 115.036Z" fill="#0E243A"/>
</g>
<g opacity="0.6378">
<path opacity="0.6378" d="M199.606 548.523L184.898 511.228L178.201 522.39L199.606 548.523ZM184.767 513.723L195.798 541.957L179.645 522.127L184.767 513.723Z" fill="#0E243A"/>
</g>
<g opacity="0.6534">
<path opacity="0.6534" d="M42.8102 551.018L138.017 528.956L30.0722 499.54L42.8102 551.018ZM133.29 528.825L43.5981 549.573L31.5167 501.248L133.29 528.825Z" fill="#0E243A"/>
</g>
<g opacity="0.4075">
<path opacity="0.4075" d="M155.483 526.33L179.383 522.784L186.343 511.097L155.483 526.33ZM178.595 521.733L162.574 524.097L183.322 513.854L178.595 521.733Z" fill="#0E243A"/>
</g>
<g opacity="0.1929">
<path opacity="0.1929" d="M214.708 403.152L290.085 342.351L209.061 322.915L214.708 403.152ZM287.59 343.007L215.627 400.919L210.243 324.491L287.59 343.007Z" fill="#0E243A"/>
</g>
<g opacity="0.1666">
<path opacity="0.1666" d="M12.7379 426.133L0.131248 387.131L0.131248 420.88L12.7379 426.133ZM1.31312 394.485L10.8994 424.163L1.31312 420.223L1.31312 394.485Z" fill="#0E243A"/>
</g>
<g opacity="0.3403">
<path opacity="0.3403" d="M341.037 23.7689L419.698 19.1727L382.666 0L330.794 0L341.037 23.7689ZM415.364 18.2535L341.694 22.587L332.502 1.18188L382.534 1.18188L415.364 18.2535Z" fill="#0E243A"/>
</g>
<g opacity="0.9176">
<path opacity="0.9176" d="M418.647 197.767L390.414 160.998L389.494 161.655L408.536 194.484L418.647 197.767ZM395.01 168.877L415.496 195.535L409.455 193.565L395.01 168.877Z" fill="#0E243A"/>
</g>
<g opacity="0.1984">
<path opacity="0.1984" d="M390.808 162.574L379.383 108.864L323.441 121.865L390.808 162.574ZM378.464 110.177L389.1 160.21L326.461 122.259L378.464 110.177Z" fill="#0E243A"/>
</g>
<g opacity="0.2669">
<path opacity="0.2669" d="M324.097 123.966L380.171 61.1951L340.906 22.0618L324.097 123.966ZM378.595 61.1951L325.936 120.158L341.694 24.2942L378.595 61.1951Z" fill="#0E243A"/>
</g>
<g opacity="0.7806">
<path opacity="0.7806" d="M152.2 117.925L137.886 32.3046L77.7413 39.3958L78.5292 40.1838L152.2 117.925ZM136.966 33.4864L150.492 114.379L80.105 40.3151L136.966 33.4864Z" fill="#0E243A"/>
</g>
<g opacity="0.9353">
<path opacity="0.9353" d="M137.492 34.6684L147.866 0L124.228 0L137.492 34.6684ZM146.29 1.18188L137.36 31.1228L125.936 1.18188L146.29 1.18188Z" fill="#0E243A"/>
</g>
<g opacity="0.4956">
<path opacity="0.4956" d="M38.0827 550.886L130.794 550.493L136.441 528.037L38.0827 550.886ZM129.875 549.442L48.3256 549.705L134.865 529.613L129.875 549.442Z" fill="#0E243A"/>
</g>
<g opacity="0.6271">
<path opacity="0.6271" d="M460.013 291.399L435.982 233.093L392.909 264.741L460.013 291.399ZM435.456 234.931L457.912 289.429L395.272 264.478L435.456 234.931Z" fill="#0E243A"/>
</g>
<g opacity="0.7557">
<path opacity="0.7557" d="M394.222 266.316L409.586 193.434L358.372 194.091L394.222 266.316ZM408.273 194.616L393.828 262.771L360.341 195.141L408.273 194.616Z" fill="#0E243A"/>
</g>
<g opacity="0.3556">
<path opacity="0.3556" d="M193.697 205.647L244.386 98.0958L150.492 115.693L193.697 205.647ZM242.416 99.6717L193.697 203.02L152.2 116.481L242.416 99.6717Z" fill="#0E243A"/>
</g>
<g opacity="0.058722">
<path opacity="0.058722" d="M297.571 211.688L279.055 97.5707L242.416 98.3586L297.571 211.688ZM278.135 98.7525L295.207 204.202L244.255 99.5405L278.135 98.7525Z" fill="#0E243A"/>
</g>
<g opacity="0.5999">
<path opacity="0.5999" d="M209.455 325.148L242.679 272.226L203.02 295.864L209.455 325.148ZM239.133 275.64L209.98 322.127L204.334 296.257L239.133 275.64Z" fill="#0E243A"/>
</g>
<g opacity="0.7881">
<path opacity="0.7881" d="M208.536 324.491L269.074 311.622L240.972 272.883L208.536 324.491ZM267.104 310.834L210.9 322.784L240.972 274.852L267.104 310.834Z" fill="#0E243A"/>
</g>
<g opacity="0.397">
<path opacity="0.397" d="M199.606 299.146L241.497 274.327L242.548 257.781L199.606 299.146ZM240.315 273.67L207.485 293.106L241.103 260.67L240.315 273.67Z" fill="#0E243A"/>
</g>
<g opacity="0.1352">
<path opacity="0.1352" d="M305.581 297.571L241.234 258.175L240.315 274.327L305.581 297.571ZM242.285 260.144L295.601 292.843L241.497 273.539L242.285 260.144Z" fill="#0E243A"/>
</g>
<g opacity="0.302">
<path opacity="0.302" d="M0.131301 457.781L5.90936 456.861L0.131301 448.982L0.131301 457.781ZM3.80824 456.074L1.31317 456.468L1.31317 452.528L3.80824 456.074Z" fill="#0E243A"/>
</g>
<g opacity="0.5835">
<path opacity="0.5835" d="M85.4891 656.599L100.985 597.242L62.6395 619.435L85.4891 656.599ZM99.1464 599.606L85.0952 653.71L64.2153 619.698L99.1464 599.606Z" fill="#0E243A"/>
</g>
<g opacity="0.7245">
<path opacity="0.7245" d="M183.848 513.198L240.578 506.763L205.778 470.65L183.848 513.198ZM238.083 505.844L185.817 511.753L206.041 472.489L238.083 505.844Z" fill="#0E243A"/>
</g>
<g opacity="0.6437">
<path opacity="0.6437" d="M240.446 508.339L231.517 476.297L204.202 470.65L240.446 508.339ZM230.597 477.216L238.083 504.268L207.485 472.489L230.597 477.216Z" fill="#0E243A"/>
</g>
<g opacity="0.593">
<path opacity="0.593" d="M0.131301 222.85L15.1017 219.961L0.131301 196.98L0.131301 222.85ZM13.1319 219.173L1.31317 221.405L1.31317 200.788L13.1319 219.173Z" fill="#0E243A"/>
</g>
<g opacity="0.4081">
<path opacity="0.4081" d="M10.1116 426.001L120.683 404.465L69.0742 367.039L68.6802 367.433L10.1116 426.001ZM117.925 403.808L13.6573 424.163L69.3368 368.483L117.925 403.808Z" fill="#0E243A"/>
</g>
<g opacity="0.9412">
<path opacity="0.9412" d="M72.6198 307.157L96.6514 238.345L6.95994 266.054L72.6198 307.157ZM94.8129 240.184L71.9632 305.45L9.71766 266.448L94.8129 240.184Z" fill="#0E243A"/>
</g>
<g opacity="0.2546">
<path opacity="0.2546" d="M469.337 184.11L500.066 131.976L420.749 103.743L469.337 184.11ZM498.359 132.502L469.337 181.747L423.375 105.712L498.359 132.502Z" fill="#0E243A"/>
</g>
<g opacity="0.5939">
<path opacity="0.5939" d="M378.07 110.177L423.244 105.187L391.202 71.9633L378.07 110.177ZM420.749 104.268L379.777 108.733L391.727 74.0644L420.749 104.268Z" fill="#0E243A"/>
</g>
<g opacity="0.7674">
<path opacity="0.7674" d="M581.09 21.0112L600 0L586.737 0L581.09 21.0112ZM597.374 1.18188L583.454 16.6776L587.525 1.18188L597.374 1.18188Z" fill="#0E243A"/>
</g>
<g opacity="0.2255">
<path opacity="0.2255" d="M134.997 529.481L159.947 525.673L142.088 490.479L134.997 529.481ZM158.109 524.754L136.31 528.037L142.482 493.894L158.109 524.754Z" fill="#0E243A"/>
</g>
<g opacity="0.1251">
<path opacity="0.1251" d="M158.766 526.067L186.211 512.541L141.037 491.136L158.766 526.067ZM183.454 512.541L159.291 524.491L143.664 493.5L183.454 512.541Z" fill="#0E243A"/>
</g>
<g opacity="0.2913">
<path opacity="0.2913" d="M185.03 513.198L206.96 470.519L140.643 492.055L185.03 513.198ZM204.728 472.488L184.504 511.622L143.795 492.318L204.728 472.488Z" fill="#0E243A"/>
</g>
<g opacity="0.7893">
<path opacity="0.7893" d="M142.613 495.863L149.704 391.858L118.582 403.808L142.613 495.863ZM148.523 393.565L141.957 488.641L120.026 404.465L148.523 393.565Z" fill="#0E243A"/>
</g>
<g opacity="0.7612">
<path opacity="0.7612" d="M55.1543 611.95L55.2856 610.768L1.52588e-05 598.818V605.647L55.1543 611.95ZM1.31321 600.263L43.9921 609.455L1.31321 604.596V600.263Z" fill="#0E243A"/>
</g>
<g opacity="0.3186">
<path opacity="0.3186" d="M0.13126 505.975L31.7793 500.854L4.59612 454.892L0.262548 479.842L0.13126 505.975ZM29.9408 499.934L1.31313 504.531L1.31313 479.842L5.1214 458.043L29.9408 499.934Z" fill="#0E243A"/>
</g>
<g opacity="0.769">
<path opacity="0.769" d="M99.0151 599.081L156.664 595.535L130.532 548.917L99.0151 599.081ZM154.695 594.353L101.116 597.636L130.269 551.018L154.695 594.353Z" fill="#0E243A"/>
</g>
<g opacity="0.7914">
<path opacity="0.7914" d="M156.008 595.273L200.919 546.816L197.636 544.452L155.22 594.485L156.008 595.273ZM199.212 547.078L173.342 575.049L197.899 546.159L199.212 547.078Z" fill="#0E243A"/>
</g>
<g opacity="0.7235">
<path opacity="0.7235" d="M241.891 490.611L262.508 468.024L230.072 476.297L241.891 490.611ZM258.962 470.125L241.891 488.772L232.042 476.953L258.962 470.125Z" fill="#0E243A"/>
</g>
<g opacity="0.1424">
<path opacity="0.1424" d="M38.2141 157.321L5.77811 105.45L0.262661 112.804L0.262661 127.774L38.2141 157.321ZM5.64678 107.42L33.7492 152.331L1.31324 126.986L1.31324 113.066L5.64678 107.42Z" fill="#0E243A"/>
</g>
<g opacity="0.3504">
<path opacity="0.3504" d="M435.456 235.325L470.781 181.615L425.082 201.445L435.456 235.325ZM467.761 184.242L435.85 232.699L426.527 202.233L467.761 184.242Z" fill="#0E243A"/>
</g>
<g opacity="0.5955">
<path opacity="0.5955" d="M425.87 202.495L469.599 183.585L469.206 182.535L415.627 196.586L425.87 202.495ZM462.114 185.424L425.87 201.182L418.516 196.848L462.114 185.424Z" fill="#0E243A"/>
</g>
<g opacity="0.8014">
<path opacity="0.8014" d="M240.446 99.5404L279.842 98.7525L269.206 86.9337L240.446 99.5404ZM277.347 97.5706L246.225 98.2272L268.943 88.2469L277.347 97.5706Z" fill="#0E243A"/>
</g>
<g opacity="0.38">
<path opacity="0.38" d="M279.054 99.4091L286.277 44.6488L268.549 87.5904L279.054 99.4091ZM283.913 53.3159L278.135 96.9141L269.731 87.5904L283.913 53.3159Z" fill="#0E243A"/>
</g>
<g opacity="0.9285">
<path opacity="0.9285" d="M210.9 326.724L203.546 293.368L200.131 310.309L210.9 326.724ZM203.677 298.884L208.536 320.683L201.576 309.915L203.677 298.884Z" fill="#0E243A"/>
</g>
<g opacity="0.9356">
<path opacity="0.9356" d="M149.573 393.04L210.374 323.703L200.788 308.995L148.654 392.383L149.573 393.04ZM208.93 323.703L153.381 386.999L200.788 311.096L208.93 323.703Z" fill="#0E243A"/>
</g>
</g>
</svg>
