<svg width="657" height="305" viewBox="0 0 657 305" fill="none" xmlns="http://www.w3.org/2000/svg">
<g opacity="0.25">
<g opacity="0.2443">
<path opacity="0.2443" d="M272.883 202.598L228.234 145.736L213.657 199.84L272.883 202.598ZM228.759 148.362L270.387 201.416L215.102 198.789L228.759 148.362Z" fill="#005DAA"/>
</g>
<g opacity="0.5038">
<path opacity="0.5038" d="M130.138 215.834L38.608 225.552L39.396 226.34L106.763 300.404L130.138 215.834ZM40.9718 226.471L128.562 217.147L106.106 298.172L40.9718 226.471Z" fill="#005DAA"/>
</g>
<g opacity="0.8777">
<path opacity="0.8777" d="M107.551 299.879L39.6586 225.026L0.262634 304.869H48.5883L107.551 299.879ZM39.9212 227.127L105.187 298.959L48.457 303.818H2.10111L39.9212 227.127Z" fill="#005DAA"/>
</g>
<g opacity="0.5761">
<path opacity="0.5761" d="M234.274 35.8063L233.749 34.7557L196.192 53.5345L192.909 63.3835L234.274 35.8063ZM197.111 54.3224L226.001 39.8772L195.01 60.6257L197.111 54.3224Z" fill="#005DAA"/>
</g>
<g opacity="0.1811">
<path opacity="0.1811" d="M183.585 68.845L176.1 1.478L131.188 37.8536L183.585 68.845ZM175.312 3.71043L182.272 66.6126L133.29 37.7223L175.312 3.71043Z" fill="#005DAA"/>
</g>
<g opacity="0.6975">
<path opacity="0.6975" d="M546.29 208.495L545.765 207.839L505.581 164.897L512.016 221.89L546.29 208.495ZM507.026 168.311L544.32 208.101L512.935 220.445L507.026 168.311Z" fill="#005DAA"/>
</g>
<g opacity="0.054651">
<path opacity="0.054651" d="M215.233 199.708L204.465 177.515L203.94 177.778L111.359 222.295L215.233 199.708ZM203.94 179.091L213.526 198.921L120.814 219.012L203.94 179.091Z" fill="#005DAA"/>
</g>
<g opacity="0.341">
<path opacity="0.341" d="M123.441 144.539L47.1438 186.167L98.4898 192.865L98.6212 192.471L123.441 144.539ZM50.8208 185.511L120.683 147.297L97.8332 191.683L50.8208 185.511Z" fill="#005DAA"/>
</g>
<g opacity="0.4395">
<path opacity="0.4395" d="M49.7702 186.299L22.8496 127.73L10.5056 198.774L49.7702 186.299ZM23.3749 131.538L48.1943 185.511L12.0814 197.067L23.3749 131.538Z" fill="#005DAA"/>
</g>
<g opacity="0.8687">
<path opacity="0.8687" d="M133.027 74.2475L115.561 20.2751L114.905 20.669L16.1523 91.1878L133.027 74.2475ZM115.036 22.1136L131.582 73.3283L20.7485 89.3493L115.036 22.1136Z" fill="#005DAA"/>
</g>
<g opacity="0.6378">
<path opacity="0.6378" d="M548.523 172.394L511.228 187.102L522.39 193.799L548.523 172.394ZM513.723 187.233L541.957 176.202L522.127 192.355L513.723 187.233Z" fill="#005DAA"/>
</g>
<g opacity="0.6534">
<path opacity="0.6534" d="M551.018 262.19L528.956 166.983L499.54 274.928L551.018 262.19ZM528.825 171.71L549.573 261.402L501.248 273.483L528.825 171.71Z" fill="#005DAA"/>
</g>
<g opacity="0.4075">
<path opacity="0.4075" d="M526.33 216.517L522.784 192.617L511.097 185.657L526.33 216.517ZM521.733 193.405L524.097 209.426L513.854 188.678L521.733 193.405Z" fill="#005DAA"/>
</g>
<g opacity="0.1929">
<path opacity="0.1929" d="M403.152 256.292L342.351 180.915L322.915 261.939L403.152 256.292ZM343.007 183.41L400.919 255.373L324.491 260.757L343.007 183.41Z" fill="#005DAA"/>
</g>
<g opacity="0.1666">
<path opacity="0.1666" d="M426.133 292.262L387.131 304.869H420.88L426.133 292.262ZM394.485 303.687L424.163 294.101L420.223 303.687H394.485Z" fill="#005DAA"/>
</g>
<g opacity="0.3403">
<path opacity="0.3403" d="M23.7689 129.963L19.1727 51.3021L0 88.3342V140.206L23.7689 129.963ZM18.2535 55.6356L22.587 129.306L1.18188 138.498V88.4656L18.2535 55.6356Z" fill="#005DAA"/>
</g>
<g opacity="0.9176">
<path opacity="0.9176" d="M197.767 52.3526L160.998 80.5864L161.655 81.5056L194.484 62.4642L197.767 52.3526ZM168.877 75.9902L195.535 55.5043L193.565 61.545L168.877 75.9902Z" fill="#005DAA"/>
</g>
<g opacity="0.1984">
<path opacity="0.1984" d="M162.574 80.1924L108.864 91.6172L121.865 147.559L162.574 80.1924ZM110.177 92.5364L160.21 81.8995L122.259 144.539L110.177 92.5364Z" fill="#005DAA"/>
</g>
<g opacity="0.2669">
<path opacity="0.2669" d="M123.966 146.903L61.195 90.8293L22.0617 130.094L123.966 146.903ZM61.195 92.4051L120.158 145.064L24.2941 129.306L61.195 92.4051Z" fill="#005DAA"/>
</g>
<g opacity="0.7806">
<path opacity="0.7806" d="M117.925 152.8L32.3046 167.114L39.3959 227.259L40.1838 226.471L117.925 152.8ZM33.4865 168.034L114.379 154.508L40.3151 224.895L33.4865 168.034Z" fill="#005DAA"/>
</g>
<g opacity="0.9353">
<path opacity="0.9353" d="M34.6684 167.508L0 157.134V180.772L34.6684 167.508ZM1.18188 158.71L31.1228 167.64L1.18188 179.064V158.71Z" fill="#005DAA"/>
</g>
<g opacity="0.4956">
<path opacity="0.4956" d="M550.886 266.917L550.493 174.206L528.037 168.559L550.886 266.917ZM549.442 175.125L549.705 256.674L529.613 170.135L549.442 175.125Z" fill="#005DAA"/>
</g>
<g opacity="0.6271">
<path opacity="0.6271" d="M291.399 10.9869L233.093 35.0184L264.741 78.0913L291.399 10.9869ZM234.931 35.5437L289.429 13.088L264.478 75.7275L234.931 35.5437Z" fill="#005DAA"/>
</g>
<g opacity="0.7557">
<path opacity="0.7557" d="M266.316 76.778L193.434 61.4136L194.091 112.628L266.316 76.778ZM194.616 62.7268L262.771 77.172L195.141 110.659L194.616 62.7268Z" fill="#005DAA"/>
</g>
<g opacity="0.3556">
<path opacity="0.3556" d="M205.647 212.303L98.0959 161.614L115.693 255.508L205.647 212.303ZM99.6717 163.584L203.02 212.303L116.481 253.8L99.6717 163.584Z" fill="#005DAA"/>
</g>
<g opacity="0.058722">
<path opacity="0.058722" d="M211.688 173.429L97.5707 191.945L98.3586 228.584L211.688 173.429ZM98.7525 192.865L204.202 175.793L99.5405 226.745L98.7525 192.865Z" fill="#005DAA"/>
</g>
<g opacity="0.5999">
<path opacity="0.5999" d="M325.148 196.545L272.226 163.321L295.864 202.98L325.148 196.545ZM275.64 166.867L322.127 196.02L296.257 201.666L275.64 166.867Z" fill="#005DAA"/>
</g>
<g opacity="0.7881">
<path opacity="0.7881" d="M324.491 262.464L311.622 201.926L272.883 230.028L324.491 262.464ZM310.834 203.896L322.784 260.1L274.852 230.028L310.834 203.896Z" fill="#005DAA"/>
</g>
<g opacity="0.397">
<path opacity="0.397" d="M299.146 206.394L274.327 164.503L257.781 163.452L299.146 206.394ZM273.67 165.685L293.106 198.515L260.67 164.897L273.67 165.685Z" fill="#005DAA"/>
</g>
<g opacity="0.1352">
<path opacity="0.1352" d="M297.571 165.419L258.175 229.766L274.327 230.685L297.571 165.419ZM260.144 228.715L292.843 175.399L273.539 229.503L260.144 228.715Z" fill="#005DAA"/>
</g>
<g opacity="0.302">
<path opacity="0.302" d="M457.781 304.869L456.861 299.091L448.982 304.869H457.781ZM456.074 301.192L456.468 303.687H452.528L456.074 301.192Z" fill="#005DAA"/>
</g>
<g opacity="0.5835">
<path opacity="0.5835" d="M656.599 219.511L597.242 204.015L619.435 242.361L656.599 219.511ZM599.606 205.854L653.71 219.905L619.698 240.785L599.606 205.854Z" fill="#005DAA"/>
</g>
<g opacity="0.7245">
<path opacity="0.7245" d="M513.198 222.152L506.763 165.422L470.65 200.222L513.198 222.152ZM505.844 167.917L511.753 220.183L472.489 199.959L505.844 167.917Z" fill="#005DAA"/>
</g>
<g opacity="0.6437">
<path opacity="0.6437" d="M508.339 165.554L476.297 174.483L470.65 201.798L508.339 165.554ZM477.216 175.403L504.268 167.917L472.489 198.515L477.216 175.403Z" fill="#005DAA"/>
</g>
<g opacity="0.593">
<path opacity="0.593" d="M222.85 304.869L219.961 289.898L196.98 304.869H222.85ZM219.173 291.868L221.405 303.687H200.788L219.173 291.868Z" fill="#005DAA"/>
</g>
<g opacity="0.4081">
<path opacity="0.4081" d="M426.001 294.888L404.465 184.317L367.039 235.926L367.433 236.32L426.001 294.888ZM403.808 187.075L424.163 291.343L368.483 235.663L403.808 187.075Z" fill="#005DAA"/>
</g>
<g opacity="0.9412">
<path opacity="0.9412" d="M307.157 232.38L238.345 208.349L266.054 298.04L307.157 232.38ZM240.184 210.187L305.45 233.037L266.448 295.282L240.184 210.187Z" fill="#005DAA"/>
</g>
<g opacity="0.2546">
<path opacity="0.2546" d="M184.11 67.6632L131.976 36.9343L103.743 116.251L184.11 67.6632ZM132.502 38.6415L181.747 67.6632L105.712 113.625L132.502 38.6415Z" fill="#005DAA"/>
</g>
<g opacity="0.5939">
<path opacity="0.5939" d="M110.177 92.9304L105.187 47.7564L71.9632 79.7984L110.177 92.9304ZM104.268 50.2515L108.733 91.2232L74.0643 79.2732L104.268 50.2515Z" fill="#005DAA"/>
</g>
<g opacity="0.7674">
<path opacity="0.7674" d="M21.0112 56.91L0 38V51.2633L21.0112 56.91ZM1.18188 40.6264L16.6776 54.5463L1.18188 50.4754V40.6264Z" fill="#005DAA"/>
</g>
<g opacity="0.2255">
<path opacity="0.2255" d="M529.481 170.003L525.673 145.053L490.479 162.912L529.481 170.003ZM524.754 146.891L528.037 168.69L493.894 162.518L524.754 146.891Z" fill="#005DAA"/>
</g>
<g opacity="0.1251">
<path opacity="0.1251" d="M526.067 213.234L512.541 185.789L491.136 230.963L526.067 213.234ZM512.541 188.546L524.491 212.709L493.5 228.336L512.541 188.546Z" fill="#005DAA"/>
</g>
<g opacity="0.2913">
<path opacity="0.2913" d="M513.198 186.97L470.519 165.04L492.055 231.357L513.198 186.97ZM472.488 167.272L511.622 187.496L492.318 228.205L472.488 167.272Z" fill="#005DAA"/>
</g>
<g opacity="0.7893">
<path opacity="0.7893" d="M495.863 162.387L391.858 155.296L403.808 186.418L495.863 162.387ZM393.565 156.477L488.641 163.043L404.465 184.974L393.565 156.477Z" fill="#005DAA"/>
</g>
<g opacity="0.7612">
<path opacity="0.7612" d="M611.95 249.846L610.768 249.714L598.818 305H605.647L611.95 249.846ZM600.263 303.687L609.455 261.008L604.596 303.687H600.263Z" fill="#005DAA"/>
</g>
<g opacity="0.3186">
<path opacity="0.3186" d="M505.975 304.869L500.854 273.221L454.892 300.404L479.842 304.737L505.975 304.869ZM499.934 275.059L504.531 303.687H479.842L458.043 299.879L499.934 275.059Z" fill="#005DAA"/>
</g>
<g opacity="0.769">
<path opacity="0.769" d="M599.081 205.985L595.535 148.336L548.917 174.468L599.081 205.985ZM594.353 150.305L597.636 203.884L551.018 174.731L594.353 150.305Z" fill="#005DAA"/>
</g>
<g opacity="0.7914">
<path opacity="0.7914" d="M595.273 215.992L546.816 171.081L544.452 174.364L594.485 216.78L595.273 215.992ZM547.078 172.788L575.049 198.658L546.159 174.101L547.078 172.788Z" fill="#005DAA"/>
</g>
<g opacity="0.7235">
<path opacity="0.7235" d="M490.611 164.109L468.024 143.492L476.297 175.928L490.611 164.109ZM470.125 147.037L488.772 164.109L476.953 173.958L470.125 147.037Z" fill="#005DAA"/>
</g>
<g opacity="0.1424">
<path opacity="0.1424" d="M157.321 266.786L105.45 299.222L112.804 304.737H127.774L157.321 266.786ZM107.42 299.353L152.331 271.251L126.986 303.687H113.066L107.42 299.353Z" fill="#005DAA"/>
</g>
<g opacity="0.3504">
<path opacity="0.3504" d="M235.325 35.5437L181.615 0.218689L201.445 45.918L235.325 35.5437ZM184.242 3.23904L232.699 35.1497L202.233 44.4735L184.242 3.23904Z" fill="#005DAA"/>
</g>
<g opacity="0.5955">
<path opacity="0.5955" d="M202.495 45.13L183.585 1.40051L182.535 1.79447L196.586 55.3729L202.495 45.13ZM185.424 8.88574L201.182 45.13L196.848 52.4839L185.424 8.88574Z" fill="#005DAA"/>
</g>
<g opacity="0.8014">
<path opacity="0.8014" d="M99.5404 230.554L98.7524 191.158L86.9337 201.794L99.5404 230.554ZM97.5706 193.653L98.2272 224.775L88.2469 202.057L97.5706 193.653Z" fill="#005DAA"/>
</g>
<g opacity="0.38">
<path opacity="0.38" d="M99.4091 191.945L44.6487 184.723L87.5903 202.451L99.4091 191.945ZM53.3158 187.087L96.914 192.865L87.5903 201.269L53.3158 187.087Z" fill="#005DAA"/>
</g>
<g opacity="0.9285">
<path opacity="0.9285" d="M326.724 161.1L293.368 168.454L310.309 171.869L326.724 161.1ZM298.884 168.323L320.683 163.464L309.915 170.424L298.884 168.323Z" fill="#005DAA"/>
</g>
<g opacity="0.9356">
<path opacity="0.9356" d="M393.04 222.427L323.703 161.626L308.995 171.212L392.383 223.346L393.04 222.427ZM323.703 163.07L386.999 218.619L311.096 171.212L323.703 163.07Z" fill="#005DAA"/>
</g>
</g>
</svg>
