<svg width="600" height="330" viewBox="0 0 600 330" fill="none" xmlns="http://www.w3.org/2000/svg">
<g opacity="0.25">
<g opacity="0.2443">
<path opacity="0.2443" d="M169.402 173.883L226.264 129.234L172.16 114.657L169.402 173.883ZM223.638 129.759L170.584 171.387L173.211 116.102L223.638 129.759Z" fill="#0E243A"/>
</g>
<g opacity="0.5038">
<path opacity="0.5038" d="M89.166 130.138L79.4484 38.608L78.6604 39.396L4.59609 106.763L89.166 130.138ZM78.5291 40.9718L87.8528 128.562L6.8285 106.106L78.5291 40.9718Z" fill="#0E243A"/>
</g>
<g opacity="0.8777">
<path opacity="0.8777" d="M5.12148 107.551L79.9738 39.6586L0.13134 0.262695L0.13134 48.5884L5.12148 107.551ZM77.8726 39.9213L6.04073 105.187L1.18188 48.4571L1.18188 2.10117L77.8726 39.9213Z" fill="#0E243A"/>
</g>
<g opacity="0.5761">
<path opacity="0.5761" d="M435.194 135.274L436.244 134.749L417.466 97.1917L407.617 93.9087L435.194 135.274ZM416.678 98.1109L431.123 127.001L410.374 96.0098L416.678 98.1109Z" fill="#0E243A"/>
</g>
<g opacity="0.1811">
<path opacity="0.1811" d="M468.155 118.585L535.522 111.1L499.146 66.1885L468.155 118.585ZM533.29 110.312L470.387 117.272L499.278 68.2896L533.29 110.312Z" fill="#0E243A"/>
</g>
<g opacity="0.6975">
<path opacity="0.6975" d="M197.505 279.29L198.161 278.765L241.103 238.581L184.11 245.016L197.505 279.29ZM237.689 240.026L197.899 277.32L185.555 245.935L237.689 240.026Z" fill="#0E243A"/>
</g>
<g opacity="0.054651">
<path opacity="0.054651" d="M172.292 215.233L194.485 204.465L194.222 203.94L149.705 111.359L172.292 215.233ZM192.909 203.94L173.079 213.526L152.988 120.814L192.909 203.94Z" fill="#0E243A"/>
</g>
<g opacity="0.341">
<path opacity="0.341" d="M326.461 123.441L284.833 47.1438L278.135 98.4898L278.529 98.6212L326.461 123.441ZM285.489 50.8208L323.703 120.683L279.317 97.8332L285.489 50.8208Z" fill="#0E243A"/>
</g>
<g opacity="0.4395">
<path opacity="0.4395" d="M284.701 49.7702L343.27 22.8497L272.226 10.5056L284.701 49.7702ZM339.462 23.375L285.489 48.1944L273.933 12.0815L339.462 23.375Z" fill="#0E243A"/>
</g>
<g opacity="0.8687">
<path opacity="0.8687" d="M498.752 133.027L552.725 115.561L552.331 114.905L481.812 16.1523L498.752 133.027ZM550.886 115.036L499.672 131.582L483.651 20.7485L550.886 115.036Z" fill="#0E243A"/>
</g>
<g opacity="0.6378">
<path opacity="0.6378" d="M199.606 281.523L184.898 244.228L178.201 255.39L199.606 281.523ZM184.767 246.723L195.798 274.957L179.645 255.127L184.767 246.723Z" fill="#0E243A"/>
</g>
<g opacity="0.6534">
<path opacity="0.6534" d="M42.8102 284.018L138.017 261.956L30.0722 232.54L42.8102 284.018ZM133.29 261.825L43.5981 282.573L31.5167 234.248L133.29 261.825Z" fill="#0E243A"/>
</g>
<g opacity="0.4075">
<path opacity="0.4075" d="M155.483 259.33L179.383 255.784L186.343 244.097L155.483 259.33ZM178.595 254.733L162.574 257.097L183.322 246.854L178.595 254.733Z" fill="#0E243A"/>
</g>
<g opacity="0.1929">
<path opacity="0.1929" d="M214.708 237.152L290.085 176.351L209.061 156.915L214.708 237.152ZM287.59 177.007L215.627 234.919L210.243 158.491L287.59 177.007Z" fill="#0E243A"/>
</g>
<g opacity="0.1666">
<path opacity="0.1666" d="M12.7379 260.133L0.131248 221.131L0.131248 254.88L12.7379 260.133ZM1.31312 228.485L10.8994 258.163L1.31312 254.223L1.31312 228.485Z" fill="#0E243A"/>
</g>
<g opacity="0.3403">
<path opacity="0.3403" d="M341.037 23.7689L419.698 19.1727L382.666 0L330.795 0L341.037 23.7689ZM415.364 18.2535L341.694 22.587L332.502 1.18188L382.534 1.18188L415.364 18.2535Z" fill="#0E243A"/>
</g>
<g opacity="0.9176">
<path opacity="0.9176" d="M418.647 98.7675L390.414 61.9979L389.494 62.6545L408.536 95.4845L418.647 98.7675ZM395.01 69.8771L415.496 96.535L409.455 94.5652L395.01 69.8771Z" fill="#0E243A"/>
</g>
<g opacity="0.1984">
<path opacity="0.1984" d="M390.808 162.574L379.383 108.864L323.441 121.865L390.808 162.574ZM378.464 110.177L389.1 160.21L326.461 122.259L378.464 110.177Z" fill="#0E243A"/>
</g>
<g opacity="0.2669">
<path opacity="0.2669" d="M324.097 123.966L380.171 61.1951L340.906 22.0618L324.097 123.966ZM378.595 61.1951L325.936 120.158L341.694 24.2942L378.595 61.1951Z" fill="#0E243A"/>
</g>
<g opacity="0.7806">
<path opacity="0.7806" d="M152.2 117.925L137.886 32.3046L77.7413 39.3958L78.5292 40.1838L152.2 117.925ZM136.966 33.4864L150.492 114.379L80.105 40.3151L136.966 33.4864Z" fill="#0E243A"/>
</g>
<g opacity="0.9353">
<path opacity="0.9353" d="M137.492 34.6684L147.866 0L124.228 0L137.492 34.6684ZM146.29 1.18188L137.36 31.1228L125.936 1.18188L146.29 1.18188Z" fill="#0E243A"/>
</g>
<g opacity="0.4956">
<path opacity="0.4956" d="M38.0827 283.886L130.794 283.493L136.441 261.037L38.0827 283.886ZM129.875 282.442L48.3256 282.705L134.865 262.613L129.875 282.442Z" fill="#0E243A"/>
</g>
<g opacity="0.6271">
<path opacity="0.6271" d="M460.013 125.399L435.982 67.0927L392.909 98.7407L460.013 125.399ZM435.456 68.9311L457.912 123.429L395.273 98.4781L435.456 68.9311Z" fill="#0E243A"/>
</g>
<g opacity="0.7557">
<path opacity="0.7557" d="M394.222 167.316L409.586 94.434L358.372 95.0906L394.222 167.316ZM408.273 95.6158L393.828 163.771L360.342 96.1411L408.273 95.6158Z" fill="#0E243A"/>
</g>
<g opacity="0.3556">
<path opacity="0.3556" d="M193.697 205.647L244.386 98.0958L150.492 115.693L193.697 205.647ZM242.416 99.6717L193.697 203.02L152.2 116.481L242.416 99.6717Z" fill="#0E243A"/>
</g>
<g opacity="0.058722">
<path opacity="0.058722" d="M297.571 211.688L279.054 97.5707L242.416 98.3586L297.571 211.688ZM278.135 98.7525L295.207 204.202L244.255 99.5405L278.135 98.7525Z" fill="#0E243A"/>
</g>
<g opacity="0.5999">
<path opacity="0.5999" d="M209.455 159.148L242.679 106.226L203.02 129.864L209.455 159.148ZM239.133 109.64L209.98 156.127L204.334 130.257L239.133 109.64Z" fill="#0E243A"/>
</g>
<g opacity="0.7881">
<path opacity="0.7881" d="M208.536 158.491L269.074 145.622L240.972 106.883L208.536 158.491ZM267.104 144.834L210.9 156.784L240.972 108.852L267.104 144.834Z" fill="#0E243A"/>
</g>
<g opacity="0.397">
<path opacity="0.397" d="M199.606 133.146L241.497 108.327L242.548 91.7808L199.606 133.146ZM240.315 107.67L207.485 127.106L241.103 94.6698L240.315 107.67Z" fill="#0E243A"/>
</g>
<g opacity="0.1352">
<path opacity="0.1352" d="M305.581 131.571L241.234 92.1747L240.315 108.327L305.581 131.571ZM242.285 94.1445L295.601 126.843L241.497 107.539L242.285 94.1445Z" fill="#0E243A"/>
</g>
<g opacity="0.302">
<path opacity="0.302" d="M0.131301 226.781L5.90936 225.861L0.131301 217.982L0.131301 226.781ZM3.80824 225.074L1.31317 225.468L1.31317 221.528L3.80824 225.074Z" fill="#0E243A"/>
</g>
<g opacity="0.5835">
<path opacity="0.5835" d="M85.4891 323.599L100.985 264.242L62.6395 286.435L85.4891 323.599ZM99.1464 266.606L85.0952 320.71L64.2153 286.698L99.1464 266.606Z" fill="#0E243A"/>
</g>
<g opacity="0.7245">
<path opacity="0.7245" d="M183.848 246.198L240.578 239.763L205.778 203.65L183.848 246.198ZM238.083 238.844L185.817 244.753L206.041 205.489L238.083 238.844Z" fill="#0E243A"/>
</g>
<g opacity="0.6437">
<path opacity="0.6437" d="M240.446 241.339L231.517 209.297L204.202 203.65L240.446 241.339ZM230.597 210.216L238.083 237.268L207.485 205.489L230.597 210.216Z" fill="#0E243A"/>
</g>
<g opacity="0.593">
<path opacity="0.593" d="M0.131301 123.85L15.1017 120.961L0.131301 97.9796L0.131301 123.85ZM13.1319 120.173L1.31317 122.405L1.31317 101.788L13.1319 120.173Z" fill="#0E243A"/>
</g>
<g opacity="0.4081">
<path opacity="0.4081" d="M10.1116 260.001L120.683 238.465L69.0742 201.039L68.6802 201.433L10.1116 260.001ZM117.925 237.808L13.6573 258.163L69.3368 202.483L117.925 237.808Z" fill="#0E243A"/>
</g>
<g opacity="0.9412">
<path opacity="0.9412" d="M72.6198 141.157L96.6514 72.3453L6.95994 100.054L72.6198 141.157ZM94.8129 74.1838L71.9632 139.45L9.71766 100.448L94.8129 74.1838Z" fill="#0E243A"/>
</g>
<g opacity="0.2546">
<path opacity="0.2546" d="M469.337 184.11L500.066 131.976L420.749 103.743L469.337 184.11ZM498.359 132.502L469.337 181.747L423.375 105.712L498.359 132.502Z" fill="#0E243A"/>
</g>
<g opacity="0.5939">
<path opacity="0.5939" d="M378.07 110.177L423.244 105.187L391.202 71.9633L378.07 110.177ZM420.749 104.268L379.777 108.733L391.727 74.0644L420.749 104.268Z" fill="#0E243A"/>
</g>
<g opacity="0.7674">
<path opacity="0.7674" d="M581.09 21.0112L600 0L586.737 0L581.09 21.0112ZM597.374 1.18188L583.454 16.6776L587.525 1.18188L597.374 1.18188Z" fill="#0E243A"/>
</g>
<g opacity="0.2255">
<path opacity="0.2255" d="M134.997 262.481L159.947 258.673L142.088 223.479L134.997 262.481ZM158.109 257.754L136.31 261.037L142.482 226.894L158.109 257.754Z" fill="#0E243A"/>
</g>
<g opacity="0.1251">
<path opacity="0.1251" d="M158.766 259.067L186.211 245.541L141.037 224.136L158.766 259.067ZM183.454 245.541L159.291 257.491L143.664 226.5L183.454 245.541Z" fill="#0E243A"/>
</g>
<g opacity="0.2913">
<path opacity="0.2913" d="M185.03 246.198L206.96 203.519L140.643 225.055L185.03 246.198ZM204.728 205.488L184.504 244.622L143.795 225.318L204.728 205.488Z" fill="#0E243A"/>
</g>
<g opacity="0.7893">
<path opacity="0.7893" d="M142.613 329.863L149.704 225.858L118.582 237.808L142.613 329.863ZM148.523 227.565L141.957 322.641L120.026 238.465L148.523 227.565Z" fill="#0E243A"/>
</g>
<g opacity="0.7612">
<path opacity="0.7612" d="M55.1543 278.95L55.2856 277.768L1.52588e-05 265.818L1.52588e-05 272.647L55.1543 278.95ZM1.31321 267.263L43.9921 276.455L1.31321 271.596L1.31321 267.263Z" fill="#0E243A"/>
</g>
<g opacity="0.3186">
<path opacity="0.3186" d="M0.13126 274.975L31.7793 269.854L4.59612 223.892L0.262548 248.842L0.13126 274.975ZM29.9408 268.934L1.31313 273.531L1.31313 248.842L5.1214 227.043L29.9408 268.934Z" fill="#0E243A"/>
</g>
<g opacity="0.769">
<path opacity="0.769" d="M99.0151 266.081L156.664 262.535L130.532 215.917L99.0151 266.081ZM154.695 261.353L101.116 264.636L130.269 218.018L154.695 261.353Z" fill="#0E243A"/>
</g>
<g opacity="0.7914">
<path opacity="0.7914" d="M156.008 262.273L200.919 213.816L197.636 211.452L155.22 261.485L156.008 262.273ZM199.212 214.078L173.342 242.049L197.899 213.159L199.212 214.078Z" fill="#0E243A"/>
</g>
<g opacity="0.7235">
<path opacity="0.7235" d="M241.891 223.611L262.508 201.024L230.072 209.297L241.891 223.611ZM258.963 203.125L241.891 221.772L232.042 209.953L258.963 203.125Z" fill="#0E243A"/>
</g>
<g opacity="0.1424">
<path opacity="0.1424" d="M38.2141 157.321L5.77811 105.45L0.262661 112.804L0.262661 127.774L38.2141 157.321ZM5.64678 107.42L33.7492 152.331L1.31324 126.986L1.31324 113.066L5.64678 107.42Z" fill="#0E243A"/>
</g>
<g opacity="0.3504">
<path opacity="0.3504" d="M435.456 136.325L470.781 82.6154L425.082 102.445L435.456 136.325ZM467.761 85.2418L435.85 133.699L426.526 103.233L467.761 85.2418Z" fill="#0E243A"/>
</g>
<g opacity="0.5955">
<path opacity="0.5955" d="M425.87 103.495L469.599 84.5851L469.206 83.5345L415.627 97.5858L425.87 103.495ZM462.114 86.4236L425.87 102.182L418.516 97.8484L462.114 86.4236Z" fill="#0E243A"/>
</g>
<g opacity="0.8014">
<path opacity="0.8014" d="M240.446 99.5404L279.842 98.7525L269.206 86.9337L240.446 99.5404ZM277.347 97.5706L246.225 98.2272L268.943 88.2469L277.347 97.5706Z" fill="#0E243A"/>
</g>
<g opacity="0.38">
<path opacity="0.38" d="M279.055 99.4091L286.277 44.6488L268.549 87.5904L279.055 99.4091ZM283.913 53.3159L278.135 96.9141L269.731 87.5904L283.913 53.3159Z" fill="#0E243A"/>
</g>
<g opacity="0.9285">
<path opacity="0.9285" d="M210.9 160.724L203.546 127.368L200.131 144.309L210.9 160.724ZM203.677 132.884L208.536 154.683L201.576 143.915L203.677 132.884Z" fill="#0E243A"/>
</g>
<g opacity="0.9356">
<path opacity="0.9356" d="M149.573 227.04L210.374 157.703L200.788 142.995L148.654 226.383L149.573 227.04ZM208.93 157.703L153.381 220.999L200.788 145.096L208.93 157.703Z" fill="#0E243A"/>
</g>
</g>
</svg>
